# xmcd
#
# Track frame offsets:
#	187
#	19845
#	38675
#	59647
#	62537
#	82402
#	102537
#	122855
#	144777
#	156937
#	175075
#	193600
#
# Disc length: 2674 seconds
#
# Revision: 1
# Processed by: cddbd v1.5PL3 Copyright (c) Steve Scherf et al.
# Submitted via: CDex 1.50Beta5
#
DISCID=a70a700c
DTITLE=Twenty-One - Blue Coust Inn
DYEAR=1900
DGENRE=Pop
TTITLE0=白い夏
TTITLE1=L'etude d'amour
TTITLE2=Two Lovers' Point
TTITLE3=Pacific Ocean
TTITLE4=ゴーギャンのように
TTITLE5=Sunny Afternoon
TTITLE6=21/Black Jack
TTITLE7=雨降るWedding Day
TTITLE8=That's My Style
TTITLE9=Up Town Story
TTITLE10=Your Eyes
TTITLE11=Micronesia
EXTD=
EXTT0=
EXTT1=
EXTT2=
EXTT3=
EXTT4=
EXTT5=
EXTT6=
EXTT7=
EXTT8=
EXTT9=
EXTT10=
EXTT11=
PLAYORDER=
